USFL
nRows=153
nColumns=2
inDegrees=yes
endheader
time	soleus_r	
2.93731	 24.215717	
2.99981	 24.133424	
3.0623	 24.063343	
3.1248	 24.042479	
3.1873	 24.030602	
3.24979	 23.939654	
3.31229	 23.919566	
3.37478	 23.859262	
3.43728	 23.814331	
3.49978	 23.808548	
3.56227	 23.789563	
3.62477	 23.697641	
3.68726	 23.624258	
3.74976	 23.664520	
3.81226	 23.645426	
3.87475	 23.703784	
3.93725	 23.669767	
3.99974	 23.729209	
4.06224	 23.729631	
4.12474	 23.744560	
4.18723	 23.746492	
4.24973	 23.707403	
4.31222	 23.760125	
4.37472	 23.921215	
4.43722	 23.935655	
4.49971	 24.010333	
4.56221	 24.036659	
4.6247	 24.123669	
4.6872	 24.204248	
4.7497	 20.568248	
4.81219	 20.505902	
4.87469	 20.441285	
4.93718	 20.298231	
4.99968	 20.275051	
5.06218	 20.227161	
5.12467	 20.227450	
5.18717	 20.240137	
5.24966	 20.250779	
5.31216	 20.279766	
5.37466	 20.239933	
5.43715	 20.220015	
5.49965	 20.176358	
5.56214	 20.184480	
5.62464	 20.037456	
5.68714	 19.927323	
5.74963	 19.931588	
5.81213	 19.917426	
5.87462	 19.864707	
5.93712	 19.846306	
5.99962	 19.805036	
6.06211	 19.766921	
6.12461	 19.743229	
6.1871	 19.754040	
6.2496	 19.805034	
6.3121	 19.888681	
6.37459	 19.950419	
6.43709	 20.025160	
6.49958	 20.105713	
6.56208	 20.151549	
6.62458	 20.291807	
6.68707	 20.213688	
6.74957	 20.255733	
6.81206	 20.308077	
6.87456	 20.260653	
6.93706	 20.286813	
6.99955	 20.233556	
7.06205	 18.667732	
7.12454	 18.662438	
7.18704	 18.656520	
7.24954	 18.661825	
7.31203	 18.665046	
7.37453	 18.693788	
7.43702	 18.674511	
7.49952	 18.682394	
7.56202	 18.652828	
7.62451	 18.644719	
7.68701	 18.637426	
7.7495	 18.635759	
7.812	 18.615745	
7.8745	 18.604224	
7.93699	 18.596269	
7.99949	 18.613279	
8.06198	 18.627459	
8.12448	 18.735673	
8.18698	 18.806058	
8.24947	 18.840994	
8.31197	 18.798526	
8.37446	 18.812413	
8.43696	 18.851364	
8.49946	 18.971365	
8.56195	 18.981343	
8.62445	 19.034753	
8.68694	 19.091503	
8.74944	 19.121203	
8.81194	 19.162607	
8.87443	 19.178510	
8.93693	 19.146117	
8.99942	 19.179353	
9.06192	 19.326937	
9.12442	 19.398332	
9.18691	 19.420525	
9.24941	 19.463154	
9.3119	 19.497819	
9.3744	 19.515560	
9.4369	 19.471312	
9.49939	 19.454879	
9.56189	 19.477391	
9.62438	 19.531130	
9.68688	 19.610675	
9.74938	 19.640366	
9.81187	 19.620601	
9.87437	 19.635155	
9.93686	 19.588739	
9.99936	 19.657310	
10.0619	 19.659188	
10.1244	 19.670046	
10.1868	 19.678605	
10.2493	 19.656736	
10.3118	 19.656763	
10.3743	 19.686539	
10.4368	 19.690763	
10.4993	 19.691828	
10.5618	 19.692574	
10.6243	 19.669177	
10.6868	 19.681771	
10.7493	 19.735609	
10.8118	 19.726276	
10.8743	 19.721377	
10.9368	 19.743086	
10.9993	 19.738216	
11.0618	 19.734947	
11.1243	 19.739049	
11.1868	 19.785158	
11.2493	 19.766381	
11.3118	 19.755268	
11.3743	 19.741811	
11.4368	 19.738594	
11.4993	 19.720845	
11.5618	 19.754342	
11.6243	 19.737354	
11.6868	 19.732692	
11.7492	 19.759015	
11.8117	 19.736629	
11.8742	 19.740248	
11.9367	 19.756606	
11.9992	 19.755148	
12.0617	 19.765886	
12.1242	 19.812310	
12.1867	 19.811692	
12.2492	 19.823884	
12.3117	 19.814156	
12.3742	 19.840279	
12.4367	 19.847425	
